<?xml version="1.0" encoding="UTF-8"?>
<svg version="1.1" xmlns="http://www.w3.org/2000/svg" width="128" height="128">
<path d="M0 0 C10.29468306 7.88498578 17.76489434 17.83847565 22.1953125 30.03515625 C22.51371094 30.89882813 22.83210938 31.7625 23.16015625 32.65234375 C28.26557344 49.26259507 26.10032732 67.06033551 18.515625 82.44140625 C9.58272974 98.48091597 -4.59995791 109.5048774 -22.2421875 114.91015625 C-34.25944231 117.57361114 -49.3626237 117.88737815 -60.8046875 113.03515625 C-61.69849121 112.66390625 -61.69849121 112.66390625 -62.61035156 112.28515625 C-80.7935429 104.54991385 -91.46474198 92.88677898 -99.76171875 74.93359375 C-105.83326983 58.06059411 -104.14207477 39.00553469 -96.6796875 22.97265625 C-88.91201685 7.80602039 -76.77877053 -3.01828729 -60.8046875 -8.96484375 C-60.01449219 -9.28324219 -59.22429688 -9.60164062 -58.41015625 -9.9296875 C-38.88162429 -16.60321732 -16.43871343 -11.51625746 0 0 Z M-60.8046875 23.03515625 C-60.8046875 43.82515625 -60.8046875 64.61515625 -60.8046875 86.03515625 C-53.84372872 83.1747024 -53.84372872 83.1747024 -47.8046875 79.03515625 C-47.71156861 77.53096886 -47.68722722 76.02244269 -47.69116211 74.51538086 C-47.69123764 73.5544603 -47.69131317 72.59353973 -47.69139099 71.60350037 C-47.69655228 70.55872025 -47.70171356 69.51394012 -47.70703125 68.4375 C-47.70915367 66.84150719 -47.70915367 66.84150719 -47.71131897 65.21327209 C-47.71693686 61.79970542 -47.72949239 58.38620325 -47.7421875 54.97265625 C-47.74720019 52.66471449 -47.7517635 50.3567717 -47.75585938 48.04882812 C-47.7669121 42.37758199 -47.78366763 36.70637372 -47.8046875 31.03515625 C-45.90238378 31.97270403 -44.00164706 32.91343164 -42.1015625 33.85546875 C-41.04291992 34.37898926 -39.98427734 34.90250977 -38.89355469 35.44189453 C-35.03603203 37.43163472 -31.43583518 39.66094431 -27.8046875 42.03515625 C-32.4246875 44.67515625 -37.0446875 47.31515625 -41.8046875 50.03515625 C-43.49764443 59.27541534 -43.49764443 59.27541534 -40.49932861 67.76855469 C-36.15711211 71.7929325 -30.98526162 74.62208092 -25.8671875 77.53515625 C-24.33077709 78.46870015 -22.7975262 79.40746501 -21.26757812 80.3515625 C-15.30302234 84.66483142 -15.30302234 84.66483142 -8.8046875 87.03515625 C-8.06899553 82.18503881 -7.78624102 77.85718858 -8.8046875 73.03515625 C-12.28609277 69.394471 -16.38065708 67.36586496 -20.8046875 65.03515625 C-22.41360763 63.90403664 -24.00163763 62.74184248 -25.5546875 61.53515625 C-26.6271875 60.71015625 -27.6996875 59.88515625 -28.8046875 59.03515625 C-23.5246875 56.06515625 -18.2446875 53.09515625 -12.8046875 50.03515625 C-12.8046875 45.08515625 -12.8046875 40.13515625 -12.8046875 35.03515625 C-16.42791598 32.9694926 -20.05318712 30.9075618 -23.6796875 28.84765625 C-24.69289062 28.26951172 -25.70609375 27.69136719 -26.75 27.09570312 C-42.88222097 16.83966016 -42.88222097 16.83966016 -60.8046875 23.03515625 Z " fill="#000000" transform="translate(102.8046875,11.96484375)"/>
</svg>
